<svg fill="none" height="20" viewBox="0 0 20 20" width="20" xmlns="http://www.w3.org/2000/svg"><path d="m14.2543 2.0484c1.2331-.25689 2.4409.53446 2.6978 1.76753.0319.153.0479.30886.0479.46514v7.98533c0 3.5748-3.4912 5.4123-5.3867 3.5168-1.89551-1.8955-.058-5.3867 3.5168-5.3867l.3698-.0005v-3.631l-7.97502 1.669.00013 5.8149c0 3.5047-3.35566 5.3395-5.27344 3.624l-.1133-.1072c-1.895512-1.8956-.05803-5.3868 3.51681-5.3868l.3698-.0009.00013-6.14725c0-.63982.04728-1.0037.18317-1.35682l.0552-.13243c.16877-.3771.42526-.69253.76001-.93467.3541-.25613.70467-.3903 1.40831-.53689zm-8.22929 11.8305h-.36993c-2.31953 0-3.34115 1.9411-2.45615 2.8261s2.82608-.1366 2.82608-2.4561zm9.47499-1.9824h-.3699c-2.3195 0-3.3411 1.941-2.4561 2.826s2.826-.1366 2.826-2.4561zm-.0164-7.77464c-.0879-.42206-.5013-.69292-.9224-.60521l-5.98174 1.2558c-.39223.08759-.53636.14807-.67695.24976-.12134.08777-.20882.19536-.27.33205-.07974.17817-.1075.35008-.1075.87649l-.00013.67025 7.97502-1.668.0001-.95193c0-.02674-.0013-.05345-.0041-.08002z" fill="#818c99"/></svg>